<svg width="100" height="100" viewBox="0 0 100 100" fill="none" xmlns="http://www.w3.org/2000/svg">
<path fill-rule="evenodd" clip-rule="evenodd" d="M36.515 79.4523L82.6151 79.4487C82.4849 79.0345 79.5365 75.2024 78.9086 74.3734L74.2138 68.0571C73.8735 67.596 73.6675 67.1572 72.9627 67.0581C72.3558 66.9729 69.8061 67.4309 69.0286 67.545L49.6975 70.3612C48.7957 70.4885 48.6258 70.4375 48.0009 70.9148L36.515 79.4523ZM70.5181 72.3039L73.44 76.244C74.1664 77.204 75.6667 76.7129 74.2517 74.9809L71.9061 71.8231C70.8669 70.3648 71.1599 70.6152 68.1515 71.5205L61.7885 73.4728C60.7547 73.8318 61.0638 74.9467 61.9451 74.8626C63.045 74.7582 69.2844 72.403 70.5181 72.3039ZM48.3611 77.1788C49.605 77.8308 49.8433 76.498 51.2367 75.2655C51.8995 74.6789 53.9479 76.0297 55.1774 75.6137C55.5358 74.3199 55.0219 74.4388 53.7516 74.1338C50.2378 73.2909 51.4361 73.3011 49.476 75.2012C48.893 75.7662 48.0435 76.0801 48.3611 77.1788Z" fill="#FEFEFE"/>
<path fill-rule="evenodd" clip-rule="evenodd" d="M14.1819 79.4475C19.6906 79.5039 25.2325 79.4481 30.7455 79.4481C34.8218 79.4481 33.3353 79.9344 36.9146 77.3577L40.5371 74.6891C40.9585 74.3812 41.329 74.15 41.7492 73.773C41.6772 73.6902 41.7324 73.7298 41.5721 73.6139L35.188 70.2244C34.0822 69.6222 33.9075 69.6649 33.2441 68.6923L29.7045 63.6932C28.9985 62.6624 28.2943 63.1751 27.7359 63.9087L26.0741 65.7326C25.1874 66.6115 23.2561 65.9451 21.5896 66.4254C20.297 66.7976 20.928 71.0391 20.2142 71.8964C19.5226 72.7266 16.8276 72.8683 16.0898 74.6255C15.7722 75.3826 14.168 78.9894 14.1819 79.4475ZM25.0157 71.7799C25.8124 72.0002 27.0113 72.9824 27.8242 72.8467C29.2716 71.7492 26.4319 70.9004 25.5338 70.4483C24.4046 69.881 24.3421 70.0443 23.8072 70.9892L21.769 74.5757C21.326 75.5687 22.382 76.0597 22.9145 75.3807C23.3966 74.766 24.482 72.343 25.0157 71.7799Z" fill="#FEFEFE"/>
<path fill-rule="evenodd" clip-rule="evenodd" d="M38.4183 62.4253C38.9821 62.8599 40.0705 63.3828 40.7639 63.7569C41.5798 64.1969 42.3542 64.5871 43.1677 65.062C44.7862 66.0069 46.4456 66.7796 48.0467 67.7119C50.8239 69.3281 50.2476 68.8628 53.8634 68.3477C54.788 68.2156 59.963 67.5877 60.3484 67.3469C60.678 67.0852 61.2093 62.2812 61.2736 61.846C61.8241 58.1406 61.4885 59.184 59.5926 55.9415C58.8049 54.5937 58.5528 55.0968 56.4119 56.0664C55.7341 56.3738 54.6805 57.1338 54.2027 56.2681C53.0632 54.2035 54.2693 54.1423 51.0299 53.0328C49.2912 52.4379 49.6484 52.2434 47.3905 55.1383C46.5278 56.2441 46.7776 56.0916 45.0149 56.055C42.4353 56.0016 41.4441 55.5447 40.9026 56.7412C40.298 58.077 38.6597 61.5031 38.4183 62.4253ZM54.0442 59.51C52.9155 60.198 54.5184 61.1459 55.6165 62.3844C56.0355 62.8569 56.4089 63.2988 56.8496 63.7364C57.5046 64.3884 57.941 64.8999 58.4831 64.5505C59.2558 64.0528 58.3571 63.261 58.1344 63.0124L55.6021 60.3775C55.3001 60.0383 54.7184 59.0988 54.0442 59.51ZM46.3627 60.0317C47.495 60.4255 48.8794 61.936 49.5908 61.8255C50.011 61.7601 50.2686 61.3194 50.0657 60.8578C49.8856 60.4495 48.5564 59.7351 48.1032 59.45C45.6213 57.8915 46.6551 57.9785 44.1511 60.2148C43.7789 60.5474 42.5625 61.3987 42.6838 62.0609C42.7612 62.4835 43.2313 62.7405 43.669 62.5471C43.8539 62.4661 44.4062 61.9336 44.5803 61.7655C45.3229 61.0487 45.3518 60.913 46.3627 60.0317Z" fill="#FEFEFE"/>
<path fill-rule="evenodd" clip-rule="evenodd" d="M85.0114 79.4493H86.2061C86.3064 78.7727 85.2054 71.4772 84.9838 69.7434C84.8355 68.5866 84.6188 67.7335 83.5868 67.4429C82.8051 67.2226 81.1638 67.303 80.6415 66.7945C80.4128 66.5718 79.5266 64.8644 79.3063 64.4262C78.0852 62.002 78.1591 61.6189 74.9814 61.2623C74.8271 61.9755 74.2748 65.2048 74.4267 65.9234C74.5191 66.3593 75.6328 67.6614 75.9648 68.1015C76.2445 68.4731 76.5213 68.8039 76.7903 69.1839C77.3096 69.9212 77.8048 70.5437 78.3697 71.311C79.4294 72.7506 80.4986 74.1272 81.5276 75.5704L83.8821 78.721C84.2748 79.2427 84.1986 79.4493 85.0114 79.4493Z" fill="#FEFEFE"/>
<path fill-rule="evenodd" clip-rule="evenodd" d="M33.218 66.1329C33.3603 66.54 34.5964 68.2659 34.908 68.4899C35.4916 68.9083 36.8634 69.5477 37.6144 69.9361L43.1045 72.7806L47.9217 69.2787C47.4493 68.8489 44.9914 67.6242 44.2446 67.2345C42.9791 66.5742 41.7952 65.8405 40.5452 65.2066C38.7874 64.3157 37.8581 63.3851 36.4977 63.5628C35.3973 63.7069 34.9939 63.8516 34.4878 64.485C34.0207 65.0691 33.6251 65.5482 33.218 66.1329Z" fill="#FEFEFE"/>
<path fill-rule="evenodd" clip-rule="evenodd" d="M63.303 53.384C63.4075 53.9339 63.2382 53.6463 63.7773 53.8865L63.2538 57.8187C62.785 58.0763 62.9218 57.5738 62.6246 58.1561C62.857 58.4275 62.6708 58.3284 63.1829 58.4167L68.5002 59.1521C69.4824 59.2926 70.479 59.4259 71.4486 59.567C71.9577 59.6414 72.4277 59.7104 72.9416 59.7831C73.5119 59.8641 74.0324 60.0658 74.311 59.729C74.227 59.4391 74.3242 59.6588 74.1291 59.4847L73.8313 59.2794L74.3807 55.46C74.7547 55.2234 74.5775 55.5386 74.993 55.2559C74.8507 54.6783 73.599 54.7396 72.3221 54.5517C71.3063 54.4028 70.2887 54.2659 69.2735 54.1248C68.4486 54.0095 63.647 53.2423 63.303 53.384Z" fill="#FEFEFE"/>
<path fill-rule="evenodd" clip-rule="evenodd" d="M62.4268 59.3917C62.5606 59.9476 62.4982 59.5393 62.9424 59.8413L62.4159 63.6619C61.9615 63.8613 61.9915 63.4698 61.7832 63.9981C62.1386 64.3842 63.873 64.4604 64.5604 64.5559C66.0745 64.7666 72.8878 65.8454 73.4539 65.7139C73.4107 65.4492 73.583 65.7283 73.3075 65.3735C72.9941 64.9701 73.5602 65.5993 73.1916 65.2625L73.0613 65.1676C73.0481 65.1574 73.0127 65.1412 72.9935 65.122C73.0769 64.5432 73.4942 61.1717 73.6112 61.3782L73.858 61.2635C74.1215 61.0792 73.9943 61.3578 74.1005 60.9333C73.6593 60.6338 66.8711 59.8179 65.3613 59.609C64.7279 59.5213 62.859 59.0753 62.4268 59.3917Z" fill="#FEFEFE"/>
<path fill-rule="evenodd" clip-rule="evenodd" d="M34.7333 19.7933C32.9635 19.2368 31.9626 18.789 29.8993 19.4764C28.7166 19.8702 26.6976 21.1549 26.7312 22.2884C27.3976 23.4621 28.0346 22.4595 28.4836 21.9936C29.9653 20.4573 32.4364 20.1181 34.3299 21.233C36.1939 22.3304 35.6986 21.0133 36.3176 19.6036C36.8627 18.3621 38.0088 17.3829 39.3031 16.9723C40.3099 16.6535 40.9607 16.851 41.8666 16.7034C43.1796 14.4532 38.8817 15.4906 37.8184 16.0448C36.4827 16.7406 35.2418 18.1009 34.7333 19.7933Z" fill="#FEFEFE"/>
<path fill-rule="evenodd" clip-rule="evenodd" d="M72.1463 18.5794C72.5257 17.5721 72.0196 17.3565 71.2926 16.9579C69.7917 16.1348 68.1816 15.9938 66.5349 16.5581C65.5995 16.8787 65.2603 17.3157 64.6564 17.5979C62.8007 14.3398 58.1444 14.7732 57.4444 15.5657C57.0434 16.0196 57.3003 16.7766 58.0345 16.7412C58.6919 16.7094 59.8097 15.9986 61.5075 16.7472C64.1653 17.9197 63.5667 20.0623 64.8293 19.4836C65.0874 19.3653 66.473 17.2593 69.1932 17.7095C71.3515 18.0673 70.7187 19.0027 72.1463 18.5794Z" fill="#FEFEFE"/>
<path fill-rule="evenodd" clip-rule="evenodd" d="M43.9123 40.632C42.2584 40.0395 41.3332 39.4668 39.202 40.1223C38.4125 40.3649 37.811 40.7077 37.3073 41.1501C36.7694 41.622 36.106 41.9606 36.7796 42.9074C37.7132 43.4981 39.2915 39.9476 42.9013 41.7607C43.7484 42.1863 44.0799 42.8611 44.718 42.4043C45.1647 42.0849 44.9611 40.6164 46.7106 39.3221C48.4462 38.0379 49.3785 38.9048 50.7995 38.4576C51.1051 37.3283 50.7509 37.144 49.4986 37.0984C48.5915 37.0654 47.7276 37.2341 46.9693 37.5517C45.5531 38.1448 44.5019 39.2705 43.9123 40.632Z" fill="#FEFEFE"/>
<path d="M6 79.7872H94.8551" stroke="#FEFEFE" stroke-width="2" stroke-miterlimit="22.9256" stroke-linecap="round" stroke-linejoin="round"/>
</svg>
