<svg width="100" height="100" viewBox="0 0 100 100" fill="none" xmlns="http://www.w3.org/2000/svg">
<path fill-rule="evenodd" clip-rule="evenodd" d="M68.7725 37.1969C69.1754 37.9319 69.0413 39.1457 69.0413 40.0634C69.0413 40.5496 69.0686 41.1408 69.0196 41.6156C68.9551 42.2411 68.6846 42.2416 68.4529 42.5886L62.4397 42.6371L62.2405 42.6559C61.3434 42.7507 60.6986 42.7473 60.7488 43.7756C60.7956 44.7406 61.5688 44.6932 62.4374 44.7047C64.1991 44.7275 65.971 44.7132 67.735 44.7132L67.7338 77.0294C68.6635 77.1938 69.9081 76.8999 70.8566 77.1932C72.1138 77.5824 71.9608 79.295 71.2543 79.8206C70.5832 80.32 66.3111 80.0124 65.7787 80.2224H24.0366C23.4717 79.9895 19.9478 80.2806 18.7996 79.929C17.9681 79.6745 17.1355 77.2195 19.9055 76.9986L19.9198 51.5545L19.958 48.1601C20.1521 48.2805 20.3552 48.4363 20.5858 48.5704C20.9071 48.87 21.5582 49.2815 21.9463 49.5571C22.1745 49.7186 22.4051 49.8813 22.6088 50.0308C22.8262 50.1906 23.0528 50.3766 23.2805 50.4902C23.5396 50.7253 26.7274 52.9818 26.8866 53.0228L29.7017 55.0139C29.8729 55.2085 30.7706 55.7729 31.0525 55.9493C31.6546 56.3253 31.8863 56.6849 32.5431 56.1313C33.1161 55.6485 33.2217 55.2633 32.5951 54.6458C32.118 54.1762 31.3459 53.7539 31.3099 53.5895C31.2414 53.2711 31.4046 48.9197 31.3459 48.4369C31.6826 48.5162 32.7566 49.3705 33.1172 49.6153L36.4214 51.958C36.676 52.1331 36.6788 52.1994 36.898 52.2427C37.003 52.4339 37.3425 52.6285 37.536 52.7598C37.7791 52.9247 37.9514 53.0485 38.166 53.206C38.5141 53.4617 39.1595 53.9565 39.5168 54.1163C39.6207 54.2538 40.5908 54.9038 40.8065 55.0539C41.0582 55.2296 41.9781 55.9065 42.1756 55.9441C42.276 56.1393 42.1556 56.0314 42.3742 56.0891C42.4324 56.1889 42.6601 56.355 42.8033 56.4052C43.2387 56.5576 43.9401 56.1501 44.0542 55.5504C44.2226 54.6652 43.2199 54.3297 42.789 53.8886L42.8079 46.8436C43.0339 46.94 43.5412 47.3629 43.7763 47.5358C44.0993 47.7732 44.3824 47.9792 44.7128 48.2149C45.3674 48.6817 45.9614 49.1428 46.62 49.5879C47.0069 49.9304 47.5251 50.2397 47.9725 50.5821C48.203 50.759 48.4279 50.9153 48.6659 51.0865C48.925 51.272 49.0956 51.4444 49.3752 51.5482C49.5002 51.789 52.4009 53.6945 52.9123 54.1665C53.3043 54.3776 53.7318 54.8176 54.1318 55.0071C54.2008 56.8635 54.1392 58.8414 54.1392 60.7116C54.1392 62.6068 54.1426 64.5025 54.1438 66.3972C54.1443 67.3268 54.1546 68.2233 54.1832 69.1518C54.1974 69.6061 54.2168 70.0198 54.4736 70.292C54.7059 70.5386 55.1253 70.6904 55.563 70.5329C55.8718 70.4222 56.2353 70.11 56.2593 69.8087C56.2924 69.3944 56.2581 68.8049 56.257 68.3723C56.2541 67.4147 56.2581 66.4571 56.2587 65.4995C56.2621 57.8844 56.2564 50.2705 56.2564 42.6554C55.5516 42.4248 55.3091 42.2793 55.2577 41.4427C55.2127 40.7077 55.187 39.9743 55.1921 39.2256C55.1967 38.5431 55.1288 37.6791 55.4946 37.2471C55.9443 36.7158 55.6521 36.8545 57.3521 36.8488C60.3847 36.8379 63.4184 36.7923 66.4492 36.8499C66.9104 36.8704 67.3686 36.8647 67.8291 36.8813C68.4164 36.903 68.4158 36.9212 68.7725 37.1969ZM50.5782 64.8952L46.3541 64.9169L46.3558 60.6922L50.5519 60.6773L50.5782 64.8952ZM39.0928 64.906L34.8738 64.914L34.8646 60.6922L39.066 60.6773C39.171 61.0722 39.1196 64.3034 39.0928 64.906ZM28.02 64.914L23.7907 64.9152L23.789 60.6922L27.9851 60.6773C28.0896 60.9969 28.0445 64.3542 28.02 64.914Z" fill="#FEFEFE"/>
<path fill-rule="evenodd" clip-rule="evenodd" d="M62.7689 24.8863C61.308 25.5129 60.133 26.8751 59.8465 28.4616C59.5549 28.4353 59.3089 28.3412 59.0224 28.2858C58.7171 28.227 58.4301 28.263 58.1385 28.2179L57.9804 28.2915C57.5358 28.3617 57.0222 28.6899 56.8025 28.9096C56.5098 29.2029 56.3808 29.531 56.1708 29.979C56.096 30.3574 56.0566 30.5839 56.0669 31.0125L56.1611 31.5621L57.0302 32.6869C57.0348 32.6777 57.049 32.7097 57.057 32.7223C57.1792 32.7496 57.0787 32.7137 57.2311 32.7941C57.3201 32.8409 57.3664 32.8741 57.4417 32.9112C57.8965 33.1354 58.4558 33.2376 58.9836 33.1474C59.6781 33.0287 60.2237 32.6138 60.5273 32.2081C60.9268 32.4278 61.2715 33.0396 62.0065 33.4984C62.269 33.6331 62.4864 33.7603 62.7792 33.8836C63.008 33.98 63.4446 34.0394 63.6107 34.1975L64.3469 34.2608H65.1635L66.0338 34.0907L66.6997 33.8653C66.589 33.35 66.2255 32.9522 66.1382 32.4301C66.0263 32.0135 66.0429 31.101 66.0709 30.6301C66.1673 28.9895 67.3937 29.8238 66.9046 30.6861L66.8966 31.8286C66.9874 32.046 67.0393 32.329 67.1449 32.5659C67.2002 32.6903 67.2453 32.7708 67.3166 32.8866C67.4011 33.0253 67.4473 33.0715 67.4741 33.1942L67.7555 33.4818C68.0562 33.8699 68.3946 33.9726 68.5145 34.202C68.8409 34.2454 69.1508 34.5199 69.5155 34.6608C69.8835 34.8035 70.3304 34.8834 70.7675 34.8982C72.0059 34.9405 72.3397 34.7898 73.3264 34.4234C74.1784 33.8505 74.4244 33.7963 75.0299 32.9882C75.18 32.7879 75.3369 32.51 75.5024 32.3941L75.9116 32.5722L76.6495 32.882C76.8983 32.8535 77.6367 33.0435 78.1144 33.0293C78.9459 33.0053 79.9114 32.7382 80.5854 32.2862C81.4095 31.7338 82.3842 30.6821 82.7089 29.6229C82.8904 29.0311 82.9007 27.3083 82.7272 26.7136L82.4053 25.9426C82.0315 25.3092 81.6144 24.7077 81.0391 24.2791C79.8156 23.3666 78.8928 23.1526 77.0997 23.2964L77.0609 23.5629L77.207 24.4183C77.2327 24.7168 77.2487 24.9554 77.2184 25.2687C77.1676 25.7988 76.9331 26.3929 76.2797 26.1469C75.8574 25.8336 76.4954 25.134 76.1336 24.068C75.5795 22.4341 74.5865 21.6198 72.9115 21.202C72.6017 21.1244 72.1246 21.1124 71.8923 21H70.7321C70.432 21.1455 67.772 21.3093 66.2095 23.9487C66.0948 24.1427 65.9493 24.4417 65.8163 24.6072C64.5426 24.5901 64.3645 24.2688 62.7689 24.8863Z" fill="#FEFEFE"/>
</svg>
