<?xml version="1.0" encoding="utf-8"?>
<!-- Generator: Adobe Illustrator 20.1.0, SVG Export Plug-In . SVG Version: 6.00 Build 0)  -->
<svg version="1.1" id="Слой_1" xmlns="http://www.w3.org/2000/svg" xmlns:xlink="http://www.w3.org/1999/xlink" x="0px" y="0px"
	 viewBox="0 0 135 139" style="enable-background:new 0 0 135 139;" xml:space="preserve">
<style type="text/css">
	.st0{fill:#DB7543;}
	.st1{fill:#465684;}
</style>
<g>
	<polygon class="st0" points="56.8,67.2 80.1,44 72.8,44 56.7,44 56.7,48.9 67.8,48.9 56.8,59.9 	"/>
	<polygon class="st0" points="73.5,67.6 67.8,61.8 71.4,58.2 80.8,67.6 	"/>
	<path class="st1" d="M34.9,89.7H18.5v0h-4.7v12.3h7.8v-4.5h13.3c2.2,0,3.9-1.7,3.9-3.9C38.8,91.5,37.1,89.7,34.9,89.7z M30.5,95.6
		h-8.9v-3.2h8.9c0.9,0,1.6,0.7,1.6,1.6C32.1,94.9,31.4,95.6,30.5,95.6z"/>
	<path class="st1" d="M45.6,55.1c0-5.4,2-10.3,5.3-14.1l-4.3-4.3c-4.4,4.9-7,11.3-7,18.4c0,7.2,2.8,13.8,7.3,18.7l4.3-4.3
		C47.7,65.7,45.6,60.7,45.6,55.1z"/>
	<path class="st1" d="M67.2,76.7c-5.5,0-10.6-2.1-14.4-5.5l-4.3,4.3c4.9,4.5,11.5,7.3,18.7,7.3c7.1,0,13.5-2.7,18.4-7l-4.3-4.3
		C77.6,74.7,72.6,76.7,67.2,76.7z"/>
	<path class="st1" d="M88.8,55.1c0,5.7-2.2,10.8-5.8,14.7l4.3,4.3c4.7-4.9,7.5-11.6,7.5-19c0-7.2-2.8-13.8-7.3-18.7l-4.3,4.3
		C86.7,44.5,88.8,49.6,88.8,55.1z"/>
	<path class="st1" d="M67.2,33.5c5.5,0,10.6,2.1,14.4,5.5l4.3-4.3c-4.9-4.5-11.5-7.3-18.7-7.3c-7.3,0-14,2.9-19,7.5l4.3,4.3
		C56.4,35.7,61.5,33.5,67.2,33.5z"/>
	<g>
		<polygon class="st1" points="53.9,89.7 47,89.7 34.6,102.1 39.4,102.1 48.8,92.7 58.1,102 66.2,102.1 		"/>
		<polygon class="st1" points="46.8,97 44,99.8 52.7,99.8 49.9,97 		"/>
	</g>
	<polygon class="st1" points="87.4,89.7 61.4,89.7 61.4,92.5 70.5,92.5 70.5,102.1 78.3,102.1 78.3,92.5 87.4,92.5 	"/>
	<polygon class="st1" points="112.6,89.7 105.3,98.9 98,89.7 98,89.8 98,89.7 90.2,89.7 90.2,102.1 98,102.1 98,95.8 103.1,102.1 
		105.3,102.1 107.6,102.1 112.6,95.9 112.6,102.1 120.4,102.1 120.4,89.7 	"/>
	<g>
		<path class="st1" d="M17.1,106.7h-0.7l-0.5,0.8c-0.1,0.2-0.2,0.4-0.4,0.6h0c-0.1-0.2-0.2-0.4-0.4-0.6l-0.5-0.8h-0.7l1.2,1.8
			l-1.3,1.8h0.7l0.5-0.8c0.1-0.2,0.3-0.4,0.4-0.6h0c0.1,0.2,0.2,0.4,0.4,0.6l0.5,0.8h0.7l-1.3-1.8L17.1,106.7z"/>
		<path class="st1" d="M32.6,106.6c-1,0-1.8,0.7-1.8,1.9c0,1.1,0.7,1.8,1.7,1.8c0.9,0,1.8-0.6,1.8-1.9
			C34.3,107.3,33.6,106.6,32.6,106.6z M32.6,109.9c-0.6,0-1.1-0.6-1.1-1.4c0-0.7,0.3-1.4,1.1-1.4c0.8,0,1.1,0.8,1.1,1.4
			C33.7,109.3,33.2,109.9,32.6,109.9z"/>
		<path class="st1" d="M48.8,108.1c0,0.8,0,1.3-0.4,1.5c-0.1,0.1-0.2,0.1-0.4,0.1l0.1,0.5c0.3,0,0.5-0.1,0.7-0.2
			c0.5-0.3,0.6-1,0.6-2v-0.9h1.2v3.1h0.6v-3.6h-2.5V108.1z"/>
		<path class="st1" d="M68.6,106.7h-2.4v0.9c0,0.5-0.1,1-0.2,1.4c-0.1,0.3-0.2,0.5-0.4,0.7l-0.3,0l0,1.6h0.5l0-1.1h2.5l0,1.1h0.5
			l0-1.6l-0.4,0V106.7z M67.9,109.8h-1.7c0.1-0.2,0.2-0.4,0.3-0.7c0.1-0.4,0.2-0.9,0.2-1.3v-0.6h1.2V109.8z"/>
		<path class="st1" d="M84.3,108.5c-0.2,0.4-0.4,0.7-0.6,1.1l0,0c0-0.5,0-0.9,0-1.4v-1.5h-0.6v3.6h0.7c0.4-0.6,0.8-1.3,1.1-1.9
			c0.2-0.4,0.4-0.7,0.6-1.1h0c0,0.6,0,0.9,0,1.5v1.5h0.6v-3.6h-0.8L84.3,108.5z"/>
		<polygon class="st1" points="103,108.1 101.3,108.1 101.3,106.7 100.7,106.7 100.7,110.3 101.3,110.3 101.3,108.6 103,108.6 
			103,110.3 103.7,110.3 103.7,106.7 103,106.7 		"/>
		<polygon class="st1" points="118.2,106.7 118.2,110.3 118.8,110.3 118.8,107.2 120.4,107.2 120.4,106.7 		"/>
	</g>
</g>
</svg>
