<svg width="100" height="100" viewBox="0 0 100 100" fill="none" xmlns="http://www.w3.org/2000/svg">
<path fill-rule="evenodd" clip-rule="evenodd" d="M26.1961 25.1522V31.7595C26.1966 34.4363 25.6289 35.8907 24.9994 38.4578L18.7649 63.9806C18.5033 65.0616 18.2353 66.0991 17.9821 67.1821C17.8332 67.8196 17.3891 69.9366 17.1839 70.3639C17.1167 70.5038 16.8526 70.8213 16.7665 70.9385L12.9152 76.0395C12.7718 76.2284 12.6185 76.3991 12.4805 76.5979L10.3763 79.4023L27.0373 79.427C43.1394 79.428 59.334 79.3716 75.4204 79.427L75.8016 79.4295C75.6859 79.1506 64.6625 64.6354 63.9035 63.6671C63.3951 63.0188 62.9644 62.3606 62.4476 61.7147L54.2459 50.8743C53.9972 50.5503 53.7633 50.2264 53.4848 49.86L51.9746 47.8893L51.6418 48.2632C51.531 48.4106 51.4395 48.5302 51.3352 48.6677L49.4703 51.1383C49.0272 51.7095 48.6647 52.206 48.2127 52.792C47.9986 53.0695 47.7969 53.3563 47.6055 53.607C47.4062 53.8691 47.1416 54.2425 46.9512 54.418L46.9423 47.3419C47.5674 47.2568 48.2716 47.4472 48.8279 47.1599C49.4575 46.8355 49.2948 46.294 49.2888 45.4716C49.274 43.2779 49.6558 42.3527 48.2508 42.2122L50.1933 34.1965C51.6151 34.1826 51.8623 34.4181 51.8608 32.9676C51.8599 32.0893 51.4277 32.1052 50.625 32.1086L47.9056 32.1141C47.3018 28.8537 45.3529 26.2599 42.096 25.2951C38.5389 24.2413 35.232 25.6121 33.0957 28.2548C32.9824 27.5734 33.0635 25.9958 33.067 25.2229C33.0739 23.7428 32.6116 24.0207 31.2289 24.0207C30.7863 24.0207 26.8909 23.9802 26.6432 24.0558C26.1753 24.1983 26.1961 24.6334 26.1961 25.1522ZM37.0405 67.4892C37.2902 67.2998 38.0305 66.2574 38.2709 65.9424C38.6126 65.4953 38.6353 65.567 38.6289 64.8683C38.625 64.4064 38.6729 63.9183 38.6002 63.4643L34.4665 63.4683C34.3904 64.2378 34.9239 64.6868 35.6168 65.5957C36.0742 66.1961 36.6493 66.8914 37.0405 67.4892ZM40.7168 61.7281L41.4635 61.7251L44.8456 57.2427C45.1062 56.9035 45.2095 56.8985 45.2075 56.3462C45.206 55.9125 45.2174 55.4516 45.1962 55.0213L40.7395 55.0055L40.7168 61.7281ZM34.4502 53.2574L38.6096 53.2727L38.6274 47.3389L34.4591 47.3384L34.4502 53.2574ZM40.7143 53.2455L45.1991 53.2722L45.2056 47.3508L40.7197 47.3384L40.7143 53.2455ZM34.4502 61.7092L38.6027 61.7261L38.6264 55.0045L34.4606 55.0075L34.4502 61.7092ZM35.952 37.7694L38.6076 37.7847L38.6324 37.4435L38.6284 36.3066L38.6244 35.9333L38.0577 35.6534L35.952 37.7694ZM40.7138 36.001L40.7143 36.591L40.7153 37.3723L40.7267 37.7917L43.4629 37.7857L41.3864 35.6731L40.7138 36.001ZM34.2128 37.9138L37.271 34.8972L36.9955 34.2014L32.5304 34.198C32.5156 35.4447 33.5764 37.3882 34.2128 37.9138ZM23.1335 62.4763L27.8765 56.2586C28.1688 55.8675 28.0125 55.9669 28.2657 55.8314C28.4051 56.0841 28.6094 56.3071 28.8027 56.5657C29.0025 56.8328 29.1623 57.0533 29.3477 57.3011L32.3816 61.2983C32.5468 61.4991 32.5116 61.5579 32.7129 61.6915L32.7075 47.3424C29.6701 47.2405 30.0554 47.5674 30.0554 44.1928C30.0554 43.0633 29.819 42.4333 30.9628 42.2206C31.7382 42.0767 33.0423 42.2359 33.9037 42.1717C33.9339 41.3389 33.9052 40.4809 33.9126 39.6442C33.9211 38.6833 33.9087 39.2876 32.98 37.9667C31.8203 36.317 31.9509 35.7434 31.5003 34.196L30.048 34.2004L23.1335 62.4763ZM45.4419 42.188L46.7653 42.1835L48.7097 34.2094L47.9373 34.198C47.5308 35.7157 47.5204 36.5005 46.4582 37.9677C45.2367 39.6555 45.3693 38.2066 45.4419 42.188ZM42.0777 31.6883L42.3121 32.1047L46.8939 32.1141C46.8498 31.0855 46.1852 29.6672 45.5616 28.8646C45.4147 28.6756 45.3643 28.5906 45.2253 28.5001C44.7194 29.0371 44.1888 29.5247 43.6641 30.0573C43.3501 30.3758 42.2513 31.3866 42.0777 31.6883ZM42.1262 34.9007L45.2026 37.9326C45.8573 37.402 46.9072 35.4086 46.9092 34.196L42.4545 34.1985L42.1262 34.9007ZM33.0774 32.1131L37.1419 32.1091L37.3639 31.6913L34.2133 28.4976C33.9265 28.6653 33.4142 29.5366 33.244 29.8655C32.9459 30.4396 33.0408 31.395 33.0774 32.1131ZM40.2707 30.4861L41.2474 30.8609C41.5036 30.7175 44.0731 28.1158 44.4386 27.7242C43.9767 26.9849 41.6178 25.9439 40.2752 25.9573L40.2707 30.4861ZM34.9912 27.7321C36.0589 28.7889 37.0341 29.8432 38.1913 30.8753C38.3975 30.7873 38.9711 30.5731 39.164 30.4772L39.1645 25.9637C38.1319 25.9266 36.6681 26.4997 35.8274 27.0526C35.5109 27.2608 35.1588 27.4537 34.9912 27.7321ZM30.4653 28.7043C30.7161 29.0629 31.4514 30.2324 31.7442 30.4886L31.7481 26.8558C31.5468 27.0165 30.543 28.4823 30.4653 28.7043ZM27.5115 30.494L27.6011 30.4169C27.6475 30.3669 27.6589 30.3575 27.7074 30.2972C27.7588 30.2329 27.7919 30.18 27.8532 30.0875L28.7988 28.7043C28.693 28.4205 27.7479 27.068 27.5234 26.8494L27.5115 30.494ZM28.1594 32.0068L31.0716 32.0161C30.9584 31.6576 29.8491 30.0939 29.6108 29.86C29.3818 30.2057 29.1291 30.5568 28.8823 30.9035C28.642 31.2412 28.33 31.621 28.1594 32.0068ZM29.596 27.4888C29.8348 27.2994 30.9371 25.6912 31.1132 25.3263L28.1594 25.3312C28.3527 25.8242 29.2157 26.8454 29.596 27.4888ZM36.0144 75.8585L43.6008 75.8773L51.4939 55.4328C51.1255 55.82 50.8248 56.2483 50.5133 56.6572L36.0144 75.8585ZM25.9741 65.5067L26.2411 64.7822L27.6713 61.0545C25.7669 63.4698 23.9208 65.9592 22.0629 68.4194L16.4476 75.8763L21.9215 75.8768L25.9741 65.5067Z" fill="#FEFEFE"/>
<path d="M67.1306 79.0909H61V50.1336H67.1306V79.0909Z" fill="#27A3DC"/>
<path d="M75.4071 79.0908H69.2765V37.4031H75.4071V79.0908Z" fill="#C4E6F6"/>
<path d="M83.6835 79.0908H77.5529V44.1721H83.6835V79.0908Z" fill="#FEFEFE"/>
<path d="M91.9596 79.0908H85.829V55.9803H91.9596V79.0908Z" fill="#C4E6F6"/>
<path d="M8 79.4042H93" stroke="#FEFEFE" stroke-width="2" stroke-miterlimit="22.9256" stroke-linecap="round" stroke-linejoin="round"/>
</svg>
